<?xml version="1.0" encoding="UTF-8" standalone="no"?>
<!-- Created with Inkscape (http://www.inkscape.org/) -->

<svg
   xmlns:dc="http://purl.org/dc/elements/1.1/"
   xmlns:cc="http://creativecommons.org/ns#"
   xmlns:rdf="http://www.w3.org/1999/02/22-rdf-syntax-ns#"
   xmlns:svg="http://www.w3.org/2000/svg"
   xmlns="http://www.w3.org/2000/svg"
   xmlns:sodipodi="http://sodipodi.sourceforge.net/DTD/sodipodi-0.dtd"
   xmlns:inkscape="http://www.inkscape.org/namespaces/inkscape"
   version="1.1"
   id="svg10"
   xml:space="preserve"
   width="1600"
   height="1600"
   viewBox="0 0 1600 1600"
   sodipodi:docname="NET.svg"
   inkscape:version="0.92.4 (5da689c313, 2019-01-14)"><metadata
     id="metadata16"><rdf:RDF><cc:Work
         rdf:about=""><dc:format>image/svg+xml</dc:format><dc:type
           rdf:resource="http://purl.org/dc/dcmitype/StillImage" /><dc:title></dc:title></cc:Work></rdf:RDF></metadata><defs
     id="defs14" /><sodipodi:namedview
     pagecolor="#ffffff"
     bordercolor="#666666"
     borderopacity="1"
     objecttolerance="10"
     gridtolerance="10"
     guidetolerance="10"
     inkscape:pageopacity="0"
     inkscape:pageshadow="2"
     inkscape:window-width="1920"
     inkscape:window-height="1001"
     id="namedview12"
     showgrid="false"
     inkscape:zoom="0.48625"
     inkscape:cx="800"
     inkscape:cy="800"
     inkscape:window-x="-9"
     inkscape:window-y="-9"
     inkscape:window-maximized="1"
     inkscape:current-layer="g18" /><g
     id="g18"
     inkscape:groupmode="layer"
     inkscape:label="NET"
     transform="matrix(1.3333333,0,0,1.3333333,0,4e-5)"><g
       id="g20"><path
         d="M 0,0 H 1200 V 1200 H 0 Z"
         style="fill:#076ae0;fill-opacity:1;fill-rule:nonzero;stroke:none"
         id="path22"
         inkscape:connector-curvature="0" /></g><g
       id="g24"><g
         id="g26"
         transform="scale(1200)"><g
           id="g28"><path
             d="M 0,0 H 1 V 1 H 0 Z"
             style="fill:#076ae0;fill-opacity:1;fill-rule:nonzero;stroke:none"
             id="path30"
             inkscape:connector-curvature="0" /></g></g></g><g
       id="g32"
       transform="translate(175,175)"><g
         id="g34"
         transform="matrix(8.723317,0,0,8.723317,-54.78243,-54.78243)"><g
           id="g36"><path
             d="m 33.98,15.54 h -6.35 c 0.3,0.92 0.46,1.9 0.46,2.91 0,1.08 -0.18,2.12 -0.52,3.09 h 6.47 c -0.34,-0.97 -0.52,-2.01 -0.52,-3.09 0,-1.01 0.16,-1.99 0.46,-2.91 z"
             style="fill:#ffffff;fill-opacity:1;fill-rule:nonzero;stroke:none"
             id="path38"
             inkscape:connector-curvature="0" /></g><g
           id="g40"><path
             d="m 9.58,15.54 h -0.3 c -1.66,0 -3,1.34 -3,3 0,1.66 1.34,3 3,3 H 9.64 C 9.3,20.57 9.12,19.53 9.12,18.45 c 0,-1.01 0.16,-1.99 0.46,-2.91 z"
             style="fill:#ffffff;fill-opacity:1;fill-rule:nonzero;stroke:none"
             id="path42"
             inkscape:connector-curvature="0" /></g><g
           id="g44"><path
             d="m 58.39,15.54 h -6.36 c 0.3,0.92 0.46,1.9 0.46,2.91 0,1.08 -0.18,2.12 -0.52,3.09 h 6.48 c -0.34,-0.97 -0.52,-2.01 -0.52,-3.09 0,-1.01 0.16,-1.99 0.46,-2.91 z"
             style="fill:#ffffff;fill-opacity:1;fill-rule:nonzero;stroke:none"
             id="path46"
             inkscape:connector-curvature="0" /></g><g
           id="g48"><path
             d="m 82.63,15.54 h -6.18 c 0.3,0.92 0.46,1.9 0.46,2.91 0,1.08 -0.18,2.12 -0.52,3.09 h 6.3 c -0.34,-0.97 -0.52,-2.01 -0.52,-3.09 0,-1.01 0.16,-1.99 0.46,-2.91 z"
             style="fill:#ffffff;fill-opacity:1;fill-rule:nonzero;stroke:none"
             id="path50"
             inkscape:connector-curvature="0" /></g><g
           id="g52"><path
             d="m 100.72,21.54 c 1.66,0 3,-1.34 3,-3 0,-1.66 -1.34,-3 -3,-3 h -0.04 c 0.3,0.92 0.46,1.9 0.46,2.91 0,1.08 -0.18,2.12 -0.52,3.09 z"
             style="fill:#ffffff;fill-opacity:1;fill-rule:nonzero;stroke:none"
             id="path54"
             inkscape:connector-curvature="0" /></g><g
           id="g56"><path
             d="m 100.72,39.85 h -0.07 c 0.32,0.95 0.49,1.95 0.49,3 0,1.05 -0.17,2.05 -0.49,3 h 0.07 c 1.66,0 3,-1.35 3,-3 0,-1.66 -1.34,-3 -3,-3 z"
             style="fill:#ffffff;fill-opacity:1;fill-rule:nonzero;stroke:none"
             id="path58"
             inkscape:connector-curvature="0" /></g><g
           id="g60"><path
             d="m 82.66,45.85 c -0.32,-0.95 -0.49,-1.95 -0.49,-3 0,-1.05 0.17,-2.05 0.49,-3 h -6.24 c 0.32,0.95 0.49,1.95 0.49,3 0,1.05 -0.17,2.05 -0.49,3 z"
             style="fill:#ffffff;fill-opacity:1;fill-rule:nonzero;stroke:none"
             id="path62"
             inkscape:connector-curvature="0" /></g><g
           id="g64"><path
             d="m 58.42,45.85 c -0.32,-0.95 -0.49,-1.95 -0.49,-3 0,-1.05 0.17,-2.05 0.49,-3 H 52 c 0.32,0.95 0.49,1.95 0.49,3 0,1.05 -0.17,2.05 -0.49,3 z"
             style="fill:#ffffff;fill-opacity:1;fill-rule:nonzero;stroke:none"
             id="path66"
             inkscape:connector-curvature="0" /></g><g
           id="g68"><path
             d="m 34.01,45.85 c -0.32,-0.95 -0.49,-1.95 -0.49,-3 0,-1.05 0.17,-2.05 0.49,-3 H 27.6 c 0.32,0.95 0.49,1.95 0.49,3 0,1.05 -0.17,2.05 -0.49,3 z"
             style="fill:#ffffff;fill-opacity:1;fill-rule:nonzero;stroke:none"
             id="path70"
             inkscape:connector-curvature="0" /></g><g
           id="g72"><path
             d="m 9.28,39.85 c -1.66,0 -3,1.34 -3,3 0,1.65 1.34,3 3,3 h 0.33 c -0.32,-0.95 -0.49,-1.95 -0.49,-3 0,-1.05 0.17,-2.05 0.49,-3 z"
             style="fill:#ffffff;fill-opacity:1;fill-rule:nonzero;stroke:none"
             id="path74"
             inkscape:connector-curvature="0" /></g><g
           id="g76"><path
             d="m 100.72,64.15 h -0.04 c 0.3,0.92 0.46,1.9 0.46,2.92 0,1.08 -0.18,2.11 -0.52,3.08 h 0.1 c 1.66,0 3,-1.34 3,-3 0,-1.65 -1.34,-3 -3,-3 z"
             style="fill:#ffffff;fill-opacity:1;fill-rule:nonzero;stroke:none"
             id="path78"
             inkscape:connector-curvature="0" /></g><g
           id="g80"><path
             d="m 82.63,64.15 h -6.18 c 0.3,0.92 0.46,1.9 0.46,2.92 0,1.08 -0.18,2.11 -0.52,3.08 h 6.3 c -0.34,-0.97 -0.52,-2 -0.52,-3.08 0,-1.02 0.16,-2 0.46,-2.92 z"
             style="fill:#ffffff;fill-opacity:1;fill-rule:nonzero;stroke:none"
             id="path82"
             inkscape:connector-curvature="0" /></g><g
           id="g84"><path
             d="m 58.39,64.15 h -6.36 c 0.3,0.92 0.46,1.9 0.46,2.92 0,1.08 -0.18,2.11 -0.52,3.08 h 6.48 c -0.34,-0.97 -0.52,-2 -0.52,-3.08 0,-1.02 0.16,-2 0.46,-2.92 z"
             style="fill:#ffffff;fill-opacity:1;fill-rule:nonzero;stroke:none"
             id="path86"
             inkscape:connector-curvature="0" /></g><g
           id="g88"><path
             d="m 9.58,64.15 h -0.3 c -1.66,0 -3,1.35 -3,3 0,1.66 1.34,3 3,3 h 0.36 c -0.34,-0.97 -0.52,-2 -0.52,-3.08 0,-1.02 0.16,-2 0.46,-2.92 z"
             style="fill:#ffffff;fill-opacity:1;fill-rule:nonzero;stroke:none"
             id="path90"
             inkscape:connector-curvature="0" /></g><g
           id="g92"><path
             d="m 33.98,64.15 h -6.35 c 0.3,0.92 0.46,1.9 0.46,2.92 0,1.08 -0.18,2.11 -0.52,3.08 h 6.47 c -0.34,-0.97 -0.52,-2 -0.52,-3.08 0,-1.02 0.16,-2 0.46,-2.92 z"
             style="fill:#ffffff;fill-opacity:1;fill-rule:nonzero;stroke:none"
             id="path94"
             inkscape:connector-curvature="0" /></g><g
           id="g96"><path
             d="m 100.72,88.46 h -0.08 c 0.33,0.95 0.5,1.96 0.5,3.02 0,1.04 -0.17,2.04 -0.48,2.98 h 0.06 c 1.66,0 3,-1.34 3,-3 0,-1.66 -1.34,-3 -3,-3 z"
             style="fill:#ffffff;fill-opacity:1;fill-rule:nonzero;stroke:none"
             id="path98"
             inkscape:connector-curvature="0" /></g><g
           id="g100"><path
             d="m 27.59,88.46 c 0.33,0.95 0.5,1.96 0.5,3.02 0,1.04 -0.17,2.04 -0.48,2.98 H 34 c -0.31,-0.94 -0.48,-1.94 -0.48,-2.98 0,-1.06 0.17,-2.07 0.5,-3.02 z"
             style="fill:#ffffff;fill-opacity:1;fill-rule:nonzero;stroke:none"
             id="path102"
             inkscape:connector-curvature="0" /></g><g
           id="g104"><path
             d="m 9.28,88.46 c -1.66,0 -3,1.34 -3,3 0,1.66 1.34,3 3,3 H 9.6 C 9.29,93.52 9.12,92.52 9.12,91.48 c 0,-1.06 0.17,-2.07 0.5,-3.02 z"
             style="fill:#ffffff;fill-opacity:1;fill-rule:nonzero;stroke:none"
             id="path106"
             inkscape:connector-curvature="0" /></g><g
           id="g108"><path
             d="m 51.99,88.46 c 0.33,0.95 0.5,1.96 0.5,3.02 0,1.04 -0.17,2.04 -0.48,2.98 h 6.4 c -0.31,-0.94 -0.48,-1.94 -0.48,-2.98 0,-1.06 0.17,-2.07 0.5,-3.02 z"
             style="fill:#ffffff;fill-opacity:1;fill-rule:nonzero;stroke:none"
             id="path110"
             inkscape:connector-curvature="0" /></g><g
           id="g112"><path
             d="m 76.41,88.46 c 0.33,0.95 0.5,1.96 0.5,3.02 0,1.04 -0.17,2.04 -0.48,2.98 h 6.22 c -0.31,-0.94 -0.48,-1.94 -0.48,-2.98 0,-1.06 0.17,-2.07 0.5,-3.02 z"
             style="fill:#ffffff;fill-opacity:1;fill-rule:nonzero;stroke:none"
             id="path114"
             inkscape:connector-curvature="0" /></g><g
           id="g116"><path
             d="M 21.54,9.42 V 9.28 c 0,-1.66 -1.34,-3 -3,-3 -1.66,0 -3,1.34 -3,3 v 0.19 c 0.96,-0.33 2,-0.51 3.07,-0.51 1.02,0 2.01,0.16 2.93,0.46 z"
             style="fill:#ffffff;fill-opacity:1;fill-rule:nonzero;stroke:none"
             id="path118"
             inkscape:connector-curvature="0" /></g><g
           id="g120"><path
             d="m 21.54,33.83 v -6.37 c -0.93,0.31 -1.91,0.47 -2.93,0.47 -1.07,0 -2.11,-0.18 -3.07,-0.52 v 6.47 c 0.96,-0.33 2,-0.51 3.07,-0.51 1.02,0 2.01,0.16 2.93,0.46 z"
             style="fill:#ffffff;fill-opacity:1;fill-rule:nonzero;stroke:none"
             id="path122"
             inkscape:connector-curvature="0" /></g><g
           id="g124"><path
             d="m 21.54,58.06 v -6.18 c -0.92,0.3 -1.91,0.46 -2.93,0.46 -1.07,0 -2.11,-0.18 -3.07,-0.51 v 6.27 c 0.96,-0.33 1.99,-0.51 3.07,-0.51 1.03,0 2.01,0.16 2.93,0.47 z"
             style="fill:#ffffff;fill-opacity:1;fill-rule:nonzero;stroke:none"
             id="path126"
             inkscape:connector-curvature="0" /></g><g
           id="g128"><path
             d="m 15.54,100.45 v 0.27 c 0,1.66 1.34,3 3,3 1.66,0 3,-1.34 3,-3 v -0.22 c -0.92,0.31 -1.91,0.47 -2.93,0.47 -1.07,0 -2.1,-0.18 -3.07,-0.52 z"
             style="fill:#ffffff;fill-opacity:1;fill-rule:nonzero;stroke:none"
             id="path130"
             inkscape:connector-curvature="0" /></g><g
           id="g132"><path
             d="m 21.54,82.45 v -6.36 c -0.92,0.31 -1.91,0.47 -2.93,0.47 -1.07,0 -2.11,-0.18 -3.07,-0.52 v 6.46 c 0.96,-0.33 1.99,-0.51 3.07,-0.51 1.02,0 2.01,0.16 2.93,0.46 z"
             style="fill:#ffffff;fill-opacity:1;fill-rule:nonzero;stroke:none"
             id="path134"
             inkscape:connector-curvature="0" /></g><g
           id="g136"><path
             d="M 45.85,9.4 V 9.28 c 0,-1.66 -1.35,-3 -3,-3 -1.66,0 -3,1.34 -3,3 V 9.5 c 0.99,-0.35 2.05,-0.54 3.16,-0.54 0.99,0 1.94,0.15 2.84,0.44 z"
             style="fill:#ffffff;fill-opacity:1;fill-rule:nonzero;stroke:none"
             id="path138"
             inkscape:connector-curvature="0" /></g><g
           id="g140"><path
             d="m 45.85,33.81 v -6.32 c -0.9,0.29 -1.85,0.44 -2.84,0.44 -1.11,0 -2.17,-0.19 -3.16,-0.55 v 6.54 c 0.99,-0.36 2.05,-0.55 3.16,-0.55 0.99,0 1.95,0.15 2.84,0.44 z"
             style="fill:#ffffff;fill-opacity:1;fill-rule:nonzero;stroke:none"
             id="path142"
             inkscape:connector-curvature="0" /></g><g
           id="g144"><path
             d="M 45.85,58.03 V 51.9 c -0.89,0.29 -1.85,0.44 -2.84,0.44 -1.11,0 -2.17,-0.19 -3.16,-0.55 v 6.35 c 0.99,-0.36 2.05,-0.55 3.16,-0.55 0.99,0 1.94,0.15 2.84,0.44 z"
             style="fill:#ffffff;fill-opacity:1;fill-rule:nonzero;stroke:none"
             id="path146"
             inkscape:connector-curvature="0" /></g><g
           id="g148"><path
             d="m 39.85,100.42 v 0.3 c 0,1.66 1.34,3 3,3 1.65,0 3,-1.34 3,-3 v -0.2 c -0.9,0.3 -1.85,0.45 -2.84,0.45 -1.11,0 -2.17,-0.19 -3.16,-0.55 z"
             style="fill:#ffffff;fill-opacity:1;fill-rule:nonzero;stroke:none"
             id="path150"
             inkscape:connector-curvature="0" /></g><g
           id="g152"><path
             d="m 45.85,82.43 v -6.31 c -0.9,0.29 -1.85,0.44 -2.84,0.44 -1.11,0 -2.17,-0.19 -3.16,-0.55 v 6.53 c 0.99,-0.36 2.05,-0.55 3.16,-0.55 0.99,0 1.95,0.15 2.84,0.44 z"
             style="fill:#ffffff;fill-opacity:1;fill-rule:nonzero;stroke:none"
             id="path154"
             inkscape:connector-curvature="0" /></g><g
           id="g156"><path
             d="M 70.15,9.37 V 9.28 c 0,-1.66 -1.34,-3 -3,-3 -1.65,0 -3,1.34 -3,3 v 0.27 c 1.02,-0.39 2.12,-0.59 3.27,-0.59 0.95,0 1.87,0.14 2.73,0.41 z"
             style="fill:#ffffff;fill-opacity:1;fill-rule:nonzero;stroke:none"
             id="path158"
             inkscape:connector-curvature="0" /></g><g
           id="g160"><path
             d="m 70.15,27.52 c -0.86,0.27 -1.78,0.41 -2.73,0.41 -1.15,0 -2.25,-0.21 -3.27,-0.59 v 6.62 c 1.02,-0.38 2.12,-0.59 3.27,-0.59 0.95,0 1.87,0.14 2.73,0.41 z"
             style="fill:#ffffff;fill-opacity:1;fill-rule:nonzero;stroke:none"
             id="path162"
             inkscape:connector-curvature="0" /></g><g
           id="g164"><path
             d="m 70.15,51.93 c -0.86,0.27 -1.78,0.41 -2.73,0.41 -1.15,0 -2.25,-0.21 -3.27,-0.59 v 6.43 c 1.02,-0.38 2.12,-0.59 3.27,-0.59 0.95,0 1.86,0.14 2.73,0.41 z"
             style="fill:#ffffff;fill-opacity:1;fill-rule:nonzero;stroke:none"
             id="path166"
             inkscape:connector-curvature="0" /></g><g
           id="g168"><path
             d="m 64.15,100.38 v 0.34 c 0,1.66 1.35,3 3,3 1.66,0 3,-1.34 3,-3 v -0.16 c -0.86,0.27 -1.78,0.41 -2.73,0.41 -1.15,0 -2.25,-0.2 -3.27,-0.59 z"
             style="fill:#ffffff;fill-opacity:1;fill-rule:nonzero;stroke:none"
             id="path170"
             inkscape:connector-curvature="0" /></g><g
           id="g172"><path
             d="m 70.15,76.15 c -0.86,0.27 -1.78,0.41 -2.73,0.41 -1.15,0 -2.25,-0.21 -3.27,-0.59 v 6.61 c 1.02,-0.38 2.12,-0.59 3.27,-0.59 0.95,0 1.87,0.14 2.73,0.41 z"
             style="fill:#ffffff;fill-opacity:1;fill-rule:nonzero;stroke:none"
             id="path174"
             inkscape:connector-curvature="0" /></g><g
           id="g176"><path
             d="M 94.46,9.39 V 9.28 c 0,-1.66 -1.34,-3 -3,-3 -1.66,0 -3,1.34 -3,3 v 0.24 c 1,-0.36 2.08,-0.56 3.2,-0.56 0.97,0 1.91,0.15 2.8,0.43 z"
             style="fill:#ffffff;fill-opacity:1;fill-rule:nonzero;stroke:none"
             id="path178"
             inkscape:connector-curvature="0" /></g><g
           id="g180"><path
             d="m 94.46,33.8 v -6.3 c -0.89,0.28 -1.82,0.43 -2.8,0.43 -1.12,0 -2.2,-0.2 -3.2,-0.56 v 6.56 c 1,-0.36 2.07,-0.56 3.2,-0.56 0.98,0 1.92,0.15 2.8,0.43 z"
             style="fill:#ffffff;fill-opacity:1;fill-rule:nonzero;stroke:none"
             id="path182"
             inkscape:connector-curvature="0" /></g><g
           id="g184"><path
             d="m 94.46,58.02 v -6.11 c -0.88,0.28 -1.82,0.43 -2.8,0.43 -1.13,0 -2.2,-0.2 -3.2,-0.56 v 6.37 c 1,-0.36 2.08,-0.56 3.2,-0.56 0.97,0 1.91,0.15 2.8,0.43 z"
             style="fill:#ffffff;fill-opacity:1;fill-rule:nonzero;stroke:none"
             id="path186"
             inkscape:connector-curvature="0" /></g><g
           id="g188"><path
             d="m 94.46,82.42 v -6.29 c -0.89,0.28 -1.82,0.43 -2.8,0.43 -1.12,0 -2.2,-0.2 -3.2,-0.56 v 6.55 c 1,-0.36 2.08,-0.56 3.2,-0.56 0.98,0 1.92,0.15 2.8,0.43 z"
             style="fill:#ffffff;fill-opacity:1;fill-rule:nonzero;stroke:none"
             id="path190"
             inkscape:connector-curvature="0" /></g><g
           id="g192"><path
             d="m 88.46,100.41 v 0.31 c 0,1.66 1.34,3 3,3 1.66,0 3,-1.34 3,-3 v -0.18 c -0.88,0.28 -1.82,0.43 -2.8,0.43 -1.12,0 -2.2,-0.2 -3.2,-0.56 z"
             style="fill:#ffffff;fill-opacity:1;fill-rule:nonzero;stroke:none"
             id="path194"
             inkscape:connector-curvature="0" /></g><g
           id="g196"><path
             d="m 18.608,11.96 c -3.576,0 -6.486,2.91 -6.486,6.487 0,3.576 2.91,6.486 6.486,6.486 3.576,0 6.486,-2.91 6.486,-6.486 10e-4,-3.577 -2.909,-6.487 -6.486,-6.487 z"
             style="fill:#ffffff;fill-opacity:1;fill-rule:nonzero;stroke:none"
             id="path198"
             inkscape:connector-curvature="0" /></g><g
           id="g200"><path
             d="m 43.008,11.96 c -3.576,0 -6.486,2.91 -6.486,6.487 0,3.576 2.91,6.486 6.486,6.486 3.576,0 6.486,-2.91 6.486,-6.486 0,-3.577 -2.91,-6.487 -6.486,-6.487 z"
             style="fill:#ffffff;fill-opacity:1;fill-rule:nonzero;stroke:none"
             id="path202"
             inkscape:connector-curvature="0" /></g><g
           id="g204"><path
             d="m 67.421,11.96 c -3.576,0 -6.486,2.91 -6.486,6.487 0,3.576 2.91,6.486 6.486,6.486 3.576,0 6.486,-2.91 6.486,-6.486 0,-3.577 -2.91,-6.487 -6.486,-6.487 z"
             style="fill:#ffffff;fill-opacity:1;fill-rule:nonzero;stroke:none"
             id="path206"
             inkscape:connector-curvature="0" /></g><g
           id="g208"><path
             d="m 91.655,11.96 c -3.576,0 -6.486,2.91 -6.486,6.487 0,3.576 2.91,6.486 6.486,6.486 3.576,0 6.486,-2.91 6.486,-6.486 10e-4,-3.577 -2.91,-6.487 -6.486,-6.487 z"
             style="fill:#ffffff;fill-opacity:1;fill-rule:nonzero;stroke:none"
             id="path210"
             inkscape:connector-curvature="0" /></g><g
           id="g212"><path
             d="m 18.608,36.366 c -3.576,0 -6.486,2.91 -6.486,6.486 0,3.576 2.91,6.486 6.486,6.486 3.576,0 6.486,-2.91 6.486,-6.486 0,-3.576 -2.909,-6.486 -6.486,-6.486 z"
             style="fill:#ffffff;fill-opacity:1;fill-rule:nonzero;stroke:none"
             id="path214"
             inkscape:connector-curvature="0" /></g><g
           id="g216"><path
             d="m 43.008,36.366 c -3.576,0 -6.486,2.91 -6.486,6.486 0,3.576 2.91,6.486 6.486,6.486 3.576,0 6.486,-2.91 6.486,-6.486 0,-3.576 -2.91,-6.486 -6.486,-6.486 z"
             style="fill:#ffffff;fill-opacity:1;fill-rule:nonzero;stroke:none"
             id="path218"
             inkscape:connector-curvature="0" /></g><g
           id="g220"><path
             d="m 67.421,36.366 c -3.576,0 -6.486,2.91 -6.486,6.486 0,3.576 2.91,6.486 6.486,6.486 3.576,0 6.486,-2.91 6.486,-6.486 0,-3.576 -2.91,-6.486 -6.486,-6.486 z"
             style="fill:#ffffff;fill-opacity:1;fill-rule:nonzero;stroke:none"
             id="path222"
             inkscape:connector-curvature="0" /></g><g
           id="g224"><path
             d="m 91.655,36.366 c -3.576,0 -6.486,2.91 -6.486,6.486 0,3.576 2.91,6.486 6.486,6.486 3.576,0 6.486,-2.91 6.486,-6.486 0,-3.576 -2.91,-6.486 -6.486,-6.486 z"
             style="fill:#ffffff;fill-opacity:1;fill-rule:nonzero;stroke:none"
             id="path226"
             inkscape:connector-curvature="0" /></g><g
           id="g228"><path
             d="m 18.608,60.588 c -3.576,0 -6.486,2.91 -6.486,6.486 0,3.576 2.91,6.486 6.486,6.486 3.576,0 6.486,-2.91 6.486,-6.486 0,-3.576 -2.909,-6.486 -6.486,-6.486 z"
             style="fill:#ffffff;fill-opacity:1;fill-rule:nonzero;stroke:none"
             id="path230"
             inkscape:connector-curvature="0" /></g><g
           id="g232"><path
             d="m 43.008,60.588 c -3.576,0 -6.486,2.91 -6.486,6.486 0,3.576 2.91,6.486 6.486,6.486 3.576,0 6.486,-2.91 6.486,-6.486 0,-3.576 -2.91,-6.486 -6.486,-6.486 z"
             style="fill:#ffffff;fill-opacity:1;fill-rule:nonzero;stroke:none"
             id="path234"
             inkscape:connector-curvature="0" /></g><g
           id="g236"><path
             d="m 67.421,60.588 c -3.576,0 -6.486,2.91 -6.486,6.486 0,3.576 2.91,6.486 6.486,6.486 3.576,0 6.486,-2.91 6.486,-6.486 0,-3.576 -2.91,-6.486 -6.486,-6.486 z"
             style="fill:#ffffff;fill-opacity:1;fill-rule:nonzero;stroke:none"
             id="path238"
             inkscape:connector-curvature="0" /></g><g
           id="g240"><path
             d="m 91.655,60.588 c -3.576,0 -6.486,2.91 -6.486,6.486 0,3.576 2.91,6.486 6.486,6.486 3.576,0 6.486,-2.91 6.486,-6.486 0,-3.576 -2.91,-6.486 -6.486,-6.486 z"
             style="fill:#ffffff;fill-opacity:1;fill-rule:nonzero;stroke:none"
             id="path242"
             inkscape:connector-curvature="0" /></g><g
           id="g244"><path
             d="m 18.608,84.993 c -3.576,0 -6.486,2.91 -6.486,6.486 0,3.576 2.91,6.486 6.486,6.486 3.576,0 6.486,-2.91 6.486,-6.486 0,-3.576 -2.909,-6.486 -6.486,-6.486 z"
             style="fill:#ffffff;fill-opacity:1;fill-rule:nonzero;stroke:none"
             id="path246"
             inkscape:connector-curvature="0" /></g><g
           id="g248"><path
             d="m 43.008,84.993 c -3.576,0 -6.486,2.91 -6.486,6.486 0,3.576 2.91,6.486 6.486,6.486 3.576,0 6.486,-2.91 6.486,-6.486 0,-3.576 -2.91,-6.486 -6.486,-6.486 z"
             style="fill:#ffffff;fill-opacity:1;fill-rule:nonzero;stroke:none"
             id="path250"
             inkscape:connector-curvature="0" /></g><g
           id="g252"><path
             d="m 67.421,84.993 c -3.576,0 -6.486,2.91 -6.486,6.486 0,3.576 2.91,6.486 6.486,6.486 3.576,0 6.486,-2.91 6.486,-6.486 0,-3.576 -2.91,-6.486 -6.486,-6.486 z"
             style="fill:#ffffff;fill-opacity:1;fill-rule:nonzero;stroke:none"
             id="path254"
             inkscape:connector-curvature="0" /></g><g
           id="g256"><path
             d="m 91.655,84.993 c -3.576,0 -6.486,2.91 -6.486,6.486 0,3.576 2.91,6.486 6.486,6.486 3.576,0 6.486,-2.91 6.486,-6.486 0,-3.576 -2.91,-6.486 -6.486,-6.486 z"
             style="fill:#ffffff;fill-opacity:1;fill-rule:nonzero;stroke:none"
             id="path258"
             inkscape:connector-curvature="0" /></g></g></g><g
       id="g260"
       transform="translate(367.38715,678.54257)"><g
         id="g262"
         transform="translate(-76.120406,-16.745972)"><g
           id="g264"><path
             d="M 616.30452,0 H 1.404125 L 60.672045,87.757837 1.404125,175.51567 H 616.30452 L 557.0366,87.757837 Z"
             style="fill:#ffffff;fill-opacity:1;fill-rule:nonzero;stroke:none"
             id="path266"
             inkscape:connector-curvature="0" /></g></g><g
         id="g268"><g
           id="g270"
           transform="translate(0,2.312846)"><path
             d="M 106.58367,68.036227 102.15071,62.639586 97.525017,57.242945 93.670273,51.268092 89.81553,45.100502 71.312759,23.513937 63.603272,11.564231 59.170317,5.974853 54.544624,0.578212 53.580938,-0.192737 h -1.34916 L 44.715028,-0.770949 21.972039,-1.34916 h -7.709487 l -7.51675,0.963686 -2.312847,0.770948 -0.963686,1.927372 -0.578211,6.360327 0.385474,6.360328 0.192737,6.360327 0.963686,6.16759 0.578212,2.120109 1.734635,0.963686 3.083795,0.385474 2.312846,-0.578211 h 5.203904 l 1.156423,0.192737 0.770949,0.770949 0.578211,2.312846 0.578212,6.938539 -0.578212,7.131276 0.385475,7.131276 0.192737,6.938538 v 7.131276 l 0.192737,7.131276 -0.192737,7.131276 v 7.131276 l 0.578211,7.131276 -0.192737,6.938543 -1.156423,2.31284 -0.963686,0.77095 -1.34916,0.38548 -5.203904,-0.19274 -3.46927,-0.57821 -1.927371,0.19273 -2.120109,0.96369 -0.770949,2.12011 -0.385475,6.16759 0.385475,6.36033 -0.770949,6.36032 0.192737,6.16759 1.156423,2.12011 2.312847,0.96369 8.094961,0.57821 7.902225,-0.38548 h 15.997187 l 15.997186,-0.77094 8.094962,0.77094 7.902225,-0.19273 2.312846,-0.77095 1.156423,-2.31285 0.192737,-6.16759 -0.578211,-6.36032 V 116.606 l -0.192737,-6.16759 v -1.92737 l -1.156423,-0.96369 -11.949706,-0.77095 -1.156423,-0.77095 v -1.54189 L 60.134003,93.670273 59.941265,87.309946 59.555791,80.949619 59.170317,68.228964 v -0.578211 l 1.541897,-0.963686 1.34916,-0.192737 0.963686,0.578211 0.770949,1.927372 0.963686,1.927372 4.625693,5.396641 4.625692,5.203904 3.854744,5.782116 4.047481,5.974853 4.240218,5.396641 4.432955,5.58938 4.240218,5.39664 4.240219,5.58938 4.240215,5.78211 4.04748,5.58938 4.24022,5.58938 4.43296,5.58938 1.15642,0.38547 1.73464,-0.19273 7.13127,0.77094 7.32401,0.38548 7.32402,-0.19274 7.13127,-1.15642 1.92737,-0.57821 0.57822,-1.92737 1.34916,-14.64803 -0.57822,-7.32401 -0.38547,-7.51675 V 90.971953 l 0.77095,-14.648027 -0.57821,-7.51675 -0.57821,-7.324013 0.38547,-7.324013 0.57821,-7.516751 -0.96368,-7.51675 v -7.324013 l 0.19273,-0.578212 1.15643,-0.192737 2.31284,0.192737 5.01117,-0.385474 4.81843,-0.770949 1.15642,-0.385474 0.77095,-0.385474 0.57821,-1.734635 0.57821,-6.16759 -0.19273,-6.360327 0.38547,-6.360328 -0.38547,-6.16759 L 165.94672,0.578212 164.01935,0 l -7.90223,-0.578212 -7.90222,0.192738 -7.90223,-0.192738 -7.90222,-0.385474 -15.80445,0.385474 -8.09496,-0.385474 -7.70949,0.770949 -1.927373,0.770949 -0.385474,0.770948 -0.192737,1.156423 -0.770949,6.16759 0.192737,6.360328 -0.385474,6.360327 -0.192737,6.16759 -0.385475,2.312846 0.770949,1.541898 2.891063,0.578211 3.85474,-0.192737 7.13128,-0.192737 v 0.770949 l -0.38548,1.156423 -0.38547,13.491603 v 3.662006 l 0.19273,3.854744 0.96369,6.553065 0.57821,2.69832 0.57821,3.854744 -0.57821,1.541897 -1.34916,0.963686 h -1.73463 l -1.34916,-0.963686 -0.57822,-0.578211 z m 169.03051,26.212258 -0.57821,3.276532 0.38547,2.312846 0.19274,2.312847 -0.57821,3.0838 -0.57822,0.57821 h -0.57821 l -0.77095,-0.19274 -0.96368,-0.19274 h -5.01117 l -3.662,-0.19273 h -13.87708 l -6.93854,0.38547 -5.2039,0.19274 -0.77095,-0.19274 -0.57822,-0.57821 -0.19273,-0.77095 -0.19274,-0.96369 v -4.047478 l -0.38547,-2.698321 -0.19274,-2.891058 -0.19274,-4.047481 0.38548,-1.927372 1.34916,-1.541897 1.73463,-0.963686 2.12011,-0.192737 6.36033,-0.385475 2.50558,-0.385474 3.66201,-0.192737 3.85474,0.385474 5.2039,0.770949 3.66201,-0.385474 1.34916,-0.385475 1.5419,-1.541897 0.38547,-1.349161 0.38548,-3.662006 -0.19274,-5.011167 -0.19274,-3.662007 0.19274,-3.854743 0.57821,-5.011167 -0.57821,-3.662007 -0.38547,-1.156423 -0.77095,-0.578211 -1.15643,-0.385475 -5.39664,-0.770949 -2.69832,-0.192737 -2.69832,0.192737 -4.04748,0.192738 h -4.04748 l -2.69832,0.192737 h -2.89106 l -3.85474,-0.578212 -1.34916,-0.385474 -0.77095,-0.385475 -0.38548,-0.963685 -0.38547,-1.349161 -0.57821,-4.432955 0.19274,-6.16759 v -4.625693 l 0.19273,-1.156423 0.57821,-0.770949 0.77095,-0.770948 1.34916,-0.192737 5.01117,-0.192738 12.14244,0.385475 5.01117,-0.385475 7.13128,-0.770948 5.01116,0.385474 0.57821,0.385474 0.19274,0.963686 v 1.927372 l -0.19274,2.505584 -0.57821,3.469269 0.57821,2.505583 0.38548,1.156424 0.57821,0.578211 0.77095,0.578212 4.81843,0.770948 4.81843,0.192738 h 3.46927 l 3.662,0.192737 5.01117,0.385474 3.46927,-0.578211 1.15642,-0.385475 0.77095,-0.770948 0.19274,-1.156424 0.38547,-1.34916 0.96369,-6.745802 V 25.634046 l -0.19274,-5.396641 V 9.444122 l -1.15642,-8.094962 -0.38547,-0.963686 -0.57822,-0.770948 -1.15642,-0.385475 -4.24022,-0.385474 -5.97485,0.770949 L 285.63651,0 H 278.3125 L 270.98849,0.192737 263.85721,0 l -3.0838,-0.192737 -8.48043,-0.192737 h -2.89106 l -7.32401,-0.192738 h -7.32402 L 223.18966,-0.385474 220.29861,0 213.16733,0.385474 208.73437,0.192737 H 198.5193 l -4.24022,-0.385474 -5.97485,-1.156423 -4.24022,0.385474 -1.34916,0.385474 -0.57821,0.770949 -0.38547,1.156423 -0.19274,1.349161 -0.57821,3.662006 -0.38548,5.011167 v 7.324013 l 0.57822,5.011167 0.57821,3.662007 0.19273,1.156423 0.38548,0.578211 0.77095,0.578212 1.15642,0.192737 2.69832,0.385474 3.85475,-0.385474 2.69832,0.385474 1.15642,0.385475 0.96369,0.578211 0.57821,0.770949 0.38547,1.34916 0.38548,4.240219 -0.38548,5.782115 -0.19274,8.480437 -0.38547,5.782115 v 14.262552 l 0.19274,8.480436 0.57821,5.782116 0.19274,8.480436 -0.19274,5.782121 -0.57821,4.24021 -0.38548,1.34916 -0.38547,0.96369 -0.77095,0.57821 -1.15642,0.38548 -2.69832,0.19273 -4.04749,-1.15642 -2.89105,0.19274 -1.15643,0.38547 -0.57821,0.77095 -0.57821,0.96369 -0.19274,1.34916 -0.57821,3.662 -0.19274,5.01117 -0.19273,7.51675 -0.38548,5.2039 0.57821,3.66201 0.38548,1.15642 0.77095,0.77095 0.96368,0.19274 1.5419,0.19274 4.24022,0.77094 5.97485,0.19274 8.86591,-0.19274 5.97486,0.19274 h 8.86591 l 10.4078,0.19274 h 4.43296 l 5.97485,-0.57821 4.43296,-0.19274 4.24022,0.19274 6.16759,0.57821 h 33.92174 l 4.43296,0.19274 3.08379,0.19273 h 3.0838 l 4.24021,-0.57821 1.34916,-0.38547 0.96369,-0.57821 0.57821,-0.96369 0.38548,-1.34916 0.38547,-4.04748 -0.38547,-5.58938 -0.38548,-4.04748 v -4.24022 l -0.38547,-5.39664 -0.19274,-4.04748 0.38547,-4.24022 1.15643,-5.589377 -0.38548,-4.047481 -0.38547,-1.34916 -0.57821,-0.963686 -0.96369,-0.770949 -1.34916,-0.385474 -3.66201,-0.385475 -2.50558,0.192737 -5.97485,0.578212 h -3.66201 l -4.81843,0.192737 -3.46927,0.192737 -1.34916,0.192738 -0.96368,0.385474 -0.38548,0.770949 z m 174.42715,-94.826697 -3.46927,-0.385474 -3.662,0.192737 -7.13128,0.578212 -14.06981,0.385474 h -7.13128 L 407.44641,0 h -7.13127 L 379.11405,-0.578212 371.98277,-0.192737 364.8515,0 l -7.13128,-0.385474 -6.93854,-0.578212 -7.13127,0.385474 -7.13128,0.192738 -7.13128,-0.385475 L 322.44931,0 l -1.15642,0.192737 -0.96368,0.385475 -0.38548,0.770948 -0.19274,1.156423 -0.96368,7.902225 v 8.094962 l 0.57821,7.902225 0.57821,8.094962 -0.38547,7.902224 0.38547,7.902225 0.19274,1.34916 0.38547,0.770949 0.57821,0.385474 1.34916,0.385475 6.74581,0.578211 6.7458,-0.385474 6.93854,0.578212 3.27653,0.385474 3.66201,-0.385474 1.34916,-0.385475 0.96368,-0.770949 0.57821,-0.770948 0.38548,-1.349161 0.57821,-3.276532 0.19274,-4.240218 -0.19274,-7.709487 0.77095,-1.541898 1.73463,-0.385474 3.66201,-0.578212 3.46927,-0.385474 1.15642,0.192737 1.34916,0.963686 0.57821,0.963686 0.38548,1.34916 0.19274,6.745802 v 34.307219 l -0.38548,6.938539 -0.38547,6.745801 v 6.938539 l -0.38548,6.745806 0.19274,2.12011 -0.57821,0.96368 -6.16759,0.19274 -2.50559,-0.19274 -3.85474,0.38548 -2.12011,0.57821 -0.57821,0.77095 -0.38547,1.15642 -0.57822,3.46927 0.19274,2.89106 0.57821,6.16759 -0.19273,6.36032 0.19273,6.16759 v 2.31285 l 1.15643,1.15642 3.85474,0.57821 h 3.0838 l 7.13127,-0.57821 27.75416,-0.77095 h 6.93853 l 6.93854,-0.19273 7.13128,0.57821 3.46927,0.19273 3.27653,-0.57821 0.96369,-0.77095 v -1.73463 l -0.19274,-6.7458 v -6.7458 l 0.77095,-6.55307 v -4.24021 l -0.38548,-2.50559 -0.77095,-1.15642 -1.73463,-0.19274 -6.7458,0.57821 -6.55307,-0.19273 -0.57821,-1.34916 0.57821,-1.92738 -0.38547,-6.938536 -0.19274,-6.745801 0.19274,-6.938539 0.38547,-6.745802 0.19274,-6.938538 0.19274,-6.745802 v -13.68434 l -0.38548,-6.938539 -0.19273,-6.745802 0.38547,-1.541897 0.57821,-0.578212 2.50559,-0.963686 2.89106,-0.385474 2.89105,-0.192737 1.15643,0.192737 1.15642,0.963686 0.57821,1.156423 0.38547,1.734635 0.57822,6.938538 1.34916,6.938539 0.19273,1.156423 0.38548,0.963686 0.57821,0.578212 1.15642,0.192737 3.85475,0.385474 2.89105,-0.192737 6.93854,-0.963686 6.74581,0.770949 4.04748,0.192737 2.89105,-0.385474 0.96369,-0.192737 0.96368,-0.578212 0.57822,-0.963686 0.19273,-1.156423 0.57822,-5.396641 -0.19274,-2.505584 -0.57821,-7.902224 0.19273,-8.094962 0.38548,-7.902225 -0.19274,-7.902225 -0.38547,-8.094962 -0.57822,-2.120109 -0.77094,-0.578211 z"
             style="fill:#076ae0;fill-opacity:1;fill-rule:nonzero;stroke:none"
             id="path272"
             inkscape:connector-curvature="0" /></g></g></g></g></svg>